<svg xmlns="http://www.w3.org/2000/svg" viewBox="0 0 487.66 71.1"><g id="bc5fb711-737b-46f6-871f-aeb52ad1cfc4" data-name="Layer 2"><g id="a262bc09-957b-4f10-be39-e66275982ba6" data-name="Layer 1"><path d="M77.82,51.25a23.8,23.8,0,0,1-.25,3.34H51.66C52.44,58.79,55,61,58.78,61a6.92,6.92,0,0,0,6.31-3.43h12A18.46,18.46,0,0,1,58.78,71.1c-10.89,0-19-8.35-19-19.53s8-19.47,19-19.47c11.25,0,19,8.41,19,19.15ZM51.87,47.61H66C64.92,44,62.41,42,58.78,42S52.84,44,51.87,47.61Z" fill="#fff"/><path d="M120.85,51.25a23.8,23.8,0,0,1-.25,3.34H94.69C95.48,58.79,98,61,101.82,61a6.92,6.92,0,0,0,6.3-3.43h12A18.48,18.48,0,0,1,101.82,71.1c-10.89,0-19-8.35-19-19.53s8-19.47,19-19.47c11.24,0,19,8.41,19,19.15ZM94.9,47.61H109C108,44,105.44,42,101.81,42S95.88,44,94.9,47.61Z" fill="#fff"/><path d="M162.42,47.58V69.9h-12V49.32c0-4.26-1.52-6.37-4.55-6.37-3.75,0-5.9,2.74-5.9,7.4V69.9h-12V33.3h8.43L138,37.07a14.19,14.19,0,0,1,11-4.86C157.1,32.21,162.42,38.25,162.42,47.58Z" fill="#fff"/><path d="M208.36,33.26v36.6h-9.29l-1-2.59a16,16,0,0,1-10.53,3.83c-10.67,0-18.29-8.17-18.29-19.54s7.62-19.41,18.29-19.41a16.09,16.09,0,0,1,10.67,3.94l1.23-2.83ZM196.93,51.59c0-4.75-3.31-8.32-7.81-8.32s-7.81,3.57-7.81,8.32,3.31,8.34,7.81,8.34S196.93,56.37,196.93,51.59Z" fill="#fff"/><path d="M262.5,57.93v12H233.78V22.45H246.4V57.93Z" fill="#fff"/><path d="M304.75,51.25a25.4,25.4,0,0,1-.25,3.34H278.59c.78,4.2,3.33,6.37,7.12,6.37A6.93,6.93,0,0,0,292,57.53h12A18.47,18.47,0,0,1,285.71,71.1c-10.89,0-18.95-8.35-18.95-19.53s8-19.47,18.95-19.47c11.25,0,19,8.41,19,19.15ZM278.8,47.61h14.11C291.85,44,289.34,42,285.71,42S279.77,44,278.8,47.61Z" fill="#fff"/><path d="M345.71,33.3l-14,36.6H320.79L306.58,33.3h13.17L326.34,55l6.52-21.67Z" fill="#fff"/><rect x="351.18" y="33.3" width="12.02" height="36.6" fill="#fff"/><path d="M406.86,47.58V69.9h-12V49.32c0-4.26-1.52-6.37-4.55-6.37-3.74,0-5.9,2.74-5.9,7.4V69.9h-12V33.3h8.43l1.65,3.77a14.2,14.2,0,0,1,11-4.86C401.54,32.21,406.86,38.25,406.86,47.58Z" fill="#fff"/><path d="M451.62,51.25a23.8,23.8,0,0,1-.25,3.34H425.46c.78,4.2,3.33,6.37,7.12,6.37a6.92,6.92,0,0,0,6.31-3.43h12A18.46,18.46,0,0,1,432.58,71.1c-10.89,0-18.95-8.35-18.95-19.53s8-19.47,18.95-19.47c11.25,0,19,8.41,19,19.15Zm-25.95-3.64h14.11C438.72,44,436.21,42,432.58,42S426.64,44,425.67,47.61Z" fill="#fff"/><circle cx="357.19" cy="20.92" r="6.54" fill="#ff6969"/><path d="M487.66,20.92c-16.79,2.29-18.65,4.14-20.93,20.93-2.28-16.79-4.13-18.64-20.92-20.93C462.6,18.64,464.45,16.79,466.73,0,469,16.79,470.87,18.64,487.66,20.92Z" fill="#ff6969"/><path d="M25.44,69.9l-13-20.81V69.9H0V22.81H12.46V42.66l12-19.85H38.87L24.38,45.62,40.22,69.9Z" fill="#fff"/></g></g></svg>